<svg width="20" height="20" fill="none" xmlns="http://www.w3.org/2000/svg"><path d="M14.846 12.286c0 .65-.123 1.222-.37 1.714-.245.492-.577.9-.993 1.222a4.598 4.598 0 0 1-1.626.826c-.585.164-1.332.246-2.24.246H4.377V3.207h4.623c.961 0 1.688.038 2.18.114.498.07.964.223 1.397.457.469.252.818.59 1.046 1.011.234.422.352.908.352 1.46 0 .638-.161 1.206-.484 1.704a2.793 2.793 0 0 1-1.318 1.099v.07c.809.17 1.456.519 1.942 1.046.487.522.73 1.228.73 2.118Zm-4.21-5.379c0-.21-.056-.427-.167-.65a.961.961 0 0 0-.501-.483 2.042 2.042 0 0 0-.774-.15 36.06 36.06 0 0 0-1.318-.017h-.228v2.768h.413c.562 0 .955-.006 1.177-.017.229-.012.463-.074.704-.185.263-.123.445-.293.544-.51.1-.217.15-.469.15-.756Zm.826 5.318c0-.405-.082-.721-.246-.95-.164-.228-.41-.4-.738-.518-.2-.076-.475-.117-.827-.123a43.486 43.486 0 0 0-1.397-.018h-.606v3.279h.175c.856 0 1.448-.006 1.776-.018.328-.012.662-.09 1.002-.237.298-.13.515-.317.65-.563.14-.252.211-.536.211-.852Z" fill="#3E9CDC"/></svg>